<?xml version="1.0" encoding="utf-8"?>
<!-- Generator: Adobe Illustrator 18.1.0, SVG Export Plug-In . SVG Version: 6.00 Build 0)  -->
<svg version="1.1" id="Layer_1" xmlns="http://www.w3.org/2000/svg" xmlns:xlink="http://www.w3.org/1999/xlink" x="0px" y="0px"
	 viewBox="-107.8 323 1000 302.6" enable-background="new -107.8 323 1000 302.6" xml:space="preserve">
<g>
	<path fill="#F3F2EE" d="M252.8,545.8h-19V368.4h62c27.5,0,48.6,5,62.9,14.9c14.8,10.2,22.4,24.9,22.4,43.3c0,21.1-9.4,36.8-28,46.8
		l-21,11.6l-9.8-16l21.6-11.8c12.3-6.4,18.2-16.4,18.2-30.4c0-26.6-21.6-39.4-66.2-39.4h-43v158.3H252.8z"/>
	<path fill="#F3F2EE" d="M833,564.6v19H289.3V398.5h19v166.1H833z"/>
	<path fill="#F3F2EE" d="M459,545.8c-26.1,0-45.3-6.7-57.2-19.8c-11.6-12.7-17.3-31.6-17.3-57.6v-22.6c0-26.1,5.6-44.9,17.3-57.6
		c11.9-13.1,31.2-19.8,57.2-19.8c26.1,0,45.3,6.7,57.2,19.8c11.6,12.7,17.3,31.6,17.3,57.6v22.6c0,26.1-5.6,44.9-17.3,57.6
		C504.3,539.2,485.1,545.8,459,545.8z M459,386.8c-8.5,0-15.8,0.9-21.9,2.6c-5.6,1.6-10.9,4.5-15.5,8.4c-4.5,3.8-8,9.7-10.3,17.3
		c-2.5,8.3-3.8,18.6-3.8,30.7v22.6c0,12.2,1.3,22.6,3.8,30.7c2.3,7.6,5.9,13.5,10.3,17.4c4.6,3.9,9.8,6.7,15.5,8.3
		c6.1,1.7,13.3,2.5,21.9,2.5c8.5,0,15.8-0.9,21.9-2.5c5.6-1.6,10.7-4.3,15.3-8.3c4.5-3.9,8-9.7,10.5-17.4c2.6-8.1,3.9-18.4,3.9-30.7
		v-22.6c0-12.2-1.3-22.6-3.9-30.7c-2.3-7.7-5.9-13.5-10.3-17.4c-4.6-3.9-9.7-6.7-15.3-8.3C474.8,387.6,467.5,386.8,459,386.8z"/>
	<path fill="#F3F2EE" d="M671.9,545.8h-99.2v-15.3h73.1l-34-78.2l19.8-9.6c11.8-5.5,17.5-13.9,17.5-25.8c0-22.6-20.7-33.5-63.4-33.5
		h-21.9v162.4h-18.2V368h40.1c26.3,0,46.6,4.2,60.2,12.6c14.2,8.7,21.3,20.8,21.3,36.2c0,17.7-9,30.7-26.7,39.1l-6.1,2.9
		L671.9,545.8z"/>
	<path fill="#F3F2EE" d="M97.7,545.6h-145V367.1H96.1L8,454.7h57.6v18.2h-94.7v54.5H97.8v18.2H97.7z M-29.1,385.4v80.3l80.8-80.3
		H-29.1z"/>
	<polygon fill="#F3F2EE" points="223.7,545.6 203,545.6 154.4,468.5 105.7,545.6 85,545.6 144,451.9 90.7,367.8 111.4,367.8 
		154.4,435.7 197.2,367.8 217.9,367.8 164.6,451.9 	"/>
	<path fill="#F3F2EE" d="M833,545.6H688V367.1h143.4l-88.2,87.6h57.6v18.2h-94.7v54.5h126.9L833,545.6L833,545.6z M706.2,385.4v80.3
		l80.8-80.3C787,385.4,706.2,385.4,706.2,385.4z"/>
	<path fill="#F3F2EE" d="M446.7,447.8l-21.5,44.4l46.1-21.5l21.5-44.4L446.7,447.8z M459,464.5c-2.9,0-5.2-2.3-5.2-5.2
		s2.3-5.2,5.2-5.2s5.2,2.3,5.2,5.2S461.9,464.5,459,464.5z"/>
</g>
<g>
	<path fill="#F3F2EE" d="M10.7,586.5c-3.3,0-5.9-1-7.8-3c-1.9-2-3-4.7-3-8.1v-5c0-3.4,1-6.1,3-8.1c2-2,4.6-3,7.8-3
		c3.2,0,5.9,1,7.8,3c1.9,2,3,4.7,3,8.1v5c0,3.4-1,6.1-3,8.1C16.5,585.4,13.9,586.5,10.7,586.5z M10.7,563c-2.2,0-3.9,0.7-5.1,1.9
		c-1.2,1.2-1.9,3-1.9,5.5v5c0,2.5,0.7,4.3,1.9,5.5s2.9,1.9,5.2,1.9c2.2,0,3.9-0.6,5.1-1.9c1.2-1.2,1.9-3,1.9-5.5v-5
		c0-2.3-0.7-4.2-1.9-5.5C14.6,563.6,12.9,563,10.7,563z"/>
	<path fill="#F3F2EE" d="M73.5,586.1h-5.6l-0.4-0.8c-0.3-0.6-0.4-1.2-0.4-2c0-0.7,0-1.4,0-2.1v-2.3c0-1.2-0.4-2-1-2.6
		c-0.8-0.7-1.9-1-3.3-1h-7.2v7.1h3.2v3.8H48.2v-3.8h3.3v-18.8h-3.3v-3.8h13.5c2.9,0,5.1,0.7,6.7,2c1.7,1.3,2.5,3.4,2.5,5.9
		c0,1.7-0.4,3.3-1.2,4.5c-0.3,0.6-0.7,0.9-1.2,1.3c0.6,0.4,0.8,0.8,1.2,1.2c0.8,1.2,1.2,2.6,1.2,4.3v2.5c0,0.4,0,0.8,0,1h2.6
		L73.5,586.1L73.5,586.1z M55.5,571.3h6.3c2,0,3.5-0.4,4.3-1c0.8-0.7,1-1.6,1-2.9c0-1.3-0.4-2.3-1-3c-0.8-0.7-2.2-1-4.3-1h-6.3
		V571.3z"/>
	<path fill="#F3F2EE" d="M109.2,586.5c-3.3,0-5.9-1-7.8-3c-1.9-2-3-4.7-3-8.1v-5c0-3.4,1-6.1,3-8.1c2-2,4.6-3,7.8-3
		c3.2,0,5.9,1,7.8,3c1.9,2,3,4.7,3,8.1v5c0,3.4-1,6.1-3,8.1C115,585.4,112.4,586.5,109.2,586.5z M109.2,563c-2.2,0-3.9,0.7-5.1,1.9
		s-1.9,3-1.9,5.5v5c0,2.5,0.7,4.3,1.9,5.5s2.9,1.9,5.2,1.9c2.2,0,3.9-0.6,5.1-1.9c1.2-1.2,1.9-3,1.9-5.5v-5c0-2.3-0.7-4.2-1.9-5.5
		C113.1,563.6,111.4,563,109.2,563z"/>
	<polygon fill="#F3F2EE" points="171.5,586.1 168.3,586.1 153.9,566.9 153.9,582.3 157.3,582.3 157.3,586.1 146.9,586.1 
		146.9,582.3 150.2,582.3 150.2,563.4 146.9,563.4 146.9,559.6 153.2,559.6 167.7,578.7 167.7,563.4 164.4,563.4 164.4,559.6 
		174.8,559.6 174.8,563.4 171.5,563.4 	"/>
	<polygon fill="#F3F2EE" points="216.7,586.1 206.2,586.1 206.2,582.3 209.4,582.3 209.4,563.4 204.1,563.4 204.1,568.2 
		200.1,568.2 200.1,559.6 223,559.6 223,568.2 219.1,568.2 219.1,563.4 213.4,563.4 213.4,582.3 216.7,582.3 	"/>
	<path fill="#F3F2EE" d="M259.5,586.5c-3.3,0-5.9-1-7.8-3c-1.9-2-3-4.7-3-8.1v-5c0-3.4,1-6.1,3-8.1c2-2,4.6-3,7.8-3
		c3.2,0,5.9,1,7.8,3c1.9,2,3,4.7,3,8.1v5c0,3.4-1,6.1-3,8.1C265.2,585.4,262.6,586.5,259.5,586.5z M259.4,563
		c-2.2,0-3.9,0.7-5.1,1.9c-1.2,1.2-1.9,3-1.9,5.5v5c0,2.5,0.7,4.3,1.9,5.5s2.9,1.9,5.2,1.9c2.2,0,3.9-0.6,5.1-1.9
		c1.2-1.2,1.9-3,1.9-5.5v-5c0-2.3-0.7-4.2-1.9-5.5C263.4,563.6,261.7,563,259.4,563z"/>
	<polygon fill="#F3F2EE" points="-32.2,586.1 -42.6,586.1 -42.6,582.3 -39.2,582.3 -39.2,563.4 -44.7,563.4 -44.7,568.2 
		-48.5,568.2 -48.5,559.6 -25.8,559.6 -25.8,568.2 -29.5,568.2 -29.5,563.4 -35.5,563.4 -35.5,582.3 -32.2,582.3 	"/>
</g>
<g>
	<path fill="#F3F2EE" d="M882.3,625.6H-97.8c-5.5,0-10-4.5-10-10V333c0-5.5,4.5-10,10-10h980.1c5.5,0,10,4.5,10,10v282.6
		C892.3,621.1,887.8,625.6,882.3,625.6z M-97.8,326.4c-3.6,0-6.5,3-6.5,6.5v282.6c0,3.6,3,6.5,6.5,6.5h980.1c3.6,0,6.5-3,6.5-6.5
		V333c0-3.6-3-6.5-6.5-6.5C882.2,326.4-97.8,326.4-97.8,326.4z"/>
</g>
</svg>
